<svg width="239" height="25" viewBox="0 0 239 25" fill="none" xmlns="http://www.w3.org/2000/svg">
<rect width="24" height="24" rx="6" fill="#BCD8F1"/>
<rect x="30" width="24" height="24" rx="6" fill="#A9CDE9"/>
<rect x="60" width="24" height="24" rx="6" fill="#97C1E4"/>
<rect x="90" width="24" height="24" rx="6" fill="#2871A8"/>
<path d="M139.42 24.4V9.38H142.46L142.58 11.76L141.98 11.58C142.073 11.14 142.3 10.74 142.66 10.38C143.02 10.02 143.473 9.73333 144.02 9.52C144.58 9.29333 145.167 9.18 145.78 9.18C146.687 9.18 147.493 9.42 148.2 9.9C148.907 10.3667 149.46 11.0133 149.86 11.84C150.273 12.6533 150.48 13.6 150.48 14.68C150.48 15.7467 150.273 16.6933 149.86 17.52C149.46 18.3467 148.9 19 148.18 19.48C147.473 19.9467 146.66 20.18 145.74 20.18C145.14 20.18 144.567 20.0667 144.02 19.84C143.473 19.6133 143.013 19.3067 142.64 18.92C142.267 18.5333 142.02 18.1133 141.9 17.66L142.64 17.38V24.4H139.42ZM144.96 17.48C145.44 17.48 145.86 17.3667 146.22 17.14C146.58 16.9 146.86 16.5733 147.06 16.16C147.26 15.7467 147.36 15.2533 147.36 14.68C147.36 14.12 147.26 13.6333 147.06 13.22C146.86 12.7933 146.58 12.4667 146.22 12.24C145.873 12 145.453 11.88 144.96 11.88C144.467 11.88 144.04 11.9933 143.68 12.22C143.32 12.4467 143.04 12.7733 142.84 13.2C142.64 13.6267 142.54 14.12 142.54 14.68C142.54 15.2533 142.64 15.7467 142.84 16.16C143.04 16.5733 143.32 16.9 143.68 17.14C144.04 17.3667 144.467 17.48 144.96 17.48ZM152.784 20V9.38H155.984V20H152.784ZM154.384 7.28C153.784 7.28 153.31 7.14 152.964 6.86C152.63 6.56667 152.464 6.15333 152.464 5.62C152.464 5.14 152.637 4.74667 152.984 4.44C153.33 4.13333 153.797 3.98 154.384 3.98C154.984 3.98 155.45 4.12667 155.784 4.42C156.117 4.7 156.284 5.1 156.284 5.62C156.284 6.11333 156.11 6.51333 155.764 6.82C155.43 7.12667 154.97 7.28 154.384 7.28ZM163.65 20.2C162.624 20.2 161.704 19.96 160.89 19.48C160.077 19 159.43 18.3467 158.95 17.52C158.484 16.68 158.25 15.7333 158.25 14.68C158.25 13.6267 158.484 12.6867 158.95 11.86C159.43 11.02 160.077 10.36 160.89 9.88C161.704 9.4 162.624 9.16 163.65 9.16C164.597 9.16 165.464 9.32667 166.25 9.66C167.05 9.99333 167.684 10.46 168.15 11.06L166.41 13.14C166.224 12.9267 166.004 12.7267 165.75 12.54C165.497 12.3533 165.217 12.2067 164.91 12.1C164.604 11.9933 164.284 11.94 163.95 11.94C163.444 11.94 162.997 12.06 162.61 12.3C162.224 12.5267 161.924 12.8467 161.71 13.26C161.497 13.6733 161.39 14.1467 161.39 14.68C161.39 15.1867 161.497 15.6467 161.71 16.06C161.937 16.4733 162.244 16.8 162.63 17.04C163.017 17.28 163.457 17.4 163.95 17.4C164.297 17.4 164.617 17.36 164.91 17.28C165.204 17.1867 165.47 17.0533 165.71 16.88C165.964 16.7067 166.197 16.4933 166.41 16.24L168.13 18.34C167.677 18.9133 167.044 19.3667 166.23 19.7C165.43 20.0333 164.57 20.2 163.65 20.2ZM170.769 20V6.7H173.969V20H170.769ZM168.889 12.18V9.38H176.029V12.18H168.889ZM182.76 20.2C181.653 20.2 180.667 19.96 179.8 19.48C178.947 19 178.267 18.3467 177.76 17.52C177.267 16.6933 177.02 15.7467 177.02 14.68C177.02 13.6133 177.267 12.6667 177.76 11.84C178.267 11.0133 178.947 10.36 179.8 9.88C180.667 9.4 181.653 9.16 182.76 9.16C183.867 9.16 184.847 9.4 185.7 9.88C186.567 10.36 187.247 11.0133 187.74 11.84C188.233 12.6667 188.48 13.6133 188.48 14.68C188.48 15.7467 188.233 16.6933 187.74 17.52C187.247 18.3467 186.567 19 185.7 19.48C184.847 19.96 183.867 20.2 182.76 20.2ZM182.76 17.44C183.24 17.44 183.667 17.32 184.04 17.08C184.413 16.84 184.707 16.5133 184.92 16.1C185.133 15.6867 185.233 15.2133 185.22 14.68C185.233 14.1467 185.133 13.6733 184.92 13.26C184.707 12.8333 184.413 12.5 184.04 12.26C183.667 12.02 183.24 11.9 182.76 11.9C182.28 11.9 181.847 12.02 181.46 12.26C181.087 12.5 180.793 12.8333 180.58 13.26C180.367 13.6733 180.267 14.1467 180.28 14.68C180.267 15.2133 180.367 15.6867 180.58 16.1C180.793 16.5133 181.087 16.84 181.46 17.08C181.847 17.32 182.28 17.44 182.76 17.44Z" fill="#F3F4F6"/>
<path d="M191.852 14.94C191.252 14.94 190.786 14.7733 190.452 14.44C190.132 14.1067 189.972 13.6333 189.972 13.02C189.972 12.46 190.146 12 190.492 11.64C190.839 11.28 191.292 11.1 191.852 11.1C192.439 11.1 192.899 11.2667 193.232 11.6C193.566 11.9333 193.732 12.4067 193.732 13.02C193.732 13.58 193.559 14.04 193.212 14.4C192.866 14.76 192.412 14.94 191.852 14.94ZM196.403 20V9.1C196.403 8.36667 196.563 7.7 196.883 7.1C197.203 6.5 197.65 6.02 198.223 5.66C198.796 5.3 199.463 5.12 200.223 5.12C200.756 5.12 201.243 5.19333 201.683 5.34C202.136 5.48667 202.556 5.69333 202.943 5.96L201.943 8.62C201.77 8.56667 201.61 8.52667 201.463 8.5C201.316 8.46 201.19 8.44 201.083 8.44C200.856 8.44 200.67 8.48 200.523 8.56C200.39 8.64 200.29 8.76 200.223 8.92C200.17 9.08 200.143 9.27333 200.143 9.5V20H198.283C197.83 20 197.443 20 197.123 20C196.816 20 196.576 20 196.403 20ZM194.903 12.66V9.68H202.183V12.66H194.903ZM203.823 20V5.2H207.543V20H203.823ZM215.302 20.2C214.168 20.2 213.155 19.96 212.262 19.48C211.368 19 210.668 18.3467 210.162 17.52C209.655 16.6933 209.402 15.74 209.402 14.66C209.402 13.58 209.655 12.6267 210.162 11.8C210.668 10.9733 211.368 10.32 212.262 9.84C213.155 9.36 214.168 9.12 215.302 9.12C216.435 9.12 217.442 9.36 218.322 9.84C219.215 10.32 219.915 10.9733 220.422 11.8C220.928 12.6267 221.182 13.58 221.182 14.66C221.182 15.74 220.928 16.6933 220.422 17.52C219.915 18.3467 219.215 19 218.322 19.48C217.442 19.96 216.435 20.2 215.302 20.2ZM215.302 17.06C215.702 17.06 216.062 16.96 216.382 16.76C216.715 16.5467 216.968 16.26 217.142 15.9C217.328 15.5267 217.422 15.1133 217.422 14.66C217.422 14.18 217.328 13.76 217.142 13.4C216.968 13.04 216.715 12.76 216.382 12.56C216.062 12.3467 215.702 12.24 215.302 12.24C214.888 12.24 214.522 12.3467 214.202 12.56C213.882 12.76 213.628 13.0467 213.442 13.42C213.255 13.78 213.162 14.1933 213.162 14.66C213.162 15.1133 213.255 15.5267 213.442 15.9C213.628 16.26 213.882 16.5467 214.202 16.76C214.522 16.96 214.888 17.06 215.302 17.06ZM225.038 20L221.578 9.34H225.518L227.238 15.8L226.818 15.72L228.758 10.7H230.918L233.018 15.72L232.598 15.78L234.298 9.34H238.238L234.598 20H231.798L229.778 14.76H229.918L227.838 20H225.038Z" fill="#2871A8"/>
</svg>
