<svg width="228" height="122" viewBox="0 0 228 122" fill="none" xmlns="http://www.w3.org/2000/svg">
<rect width="48" height="48" rx="12" fill="#BCD8F1"/>
<rect x="60" width="48" height="48" rx="12" fill="#A9CDE9"/>
<rect x="120" width="48" height="48" rx="12" fill="#97C1E4"/>
<rect x="180" width="48" height="48" rx="12" fill="#2871A8"/>
<path d="M16.4494 120.8V90.76H22.5294L22.7694 95.52L21.5694 95.16C21.756 94.28 22.2094 93.48 22.9294 92.76C23.6494 92.04 24.556 91.4667 25.6494 91.04C26.7694 90.5867 27.9427 90.36 29.1694 90.36C30.9827 90.36 32.596 90.84 34.0094 91.8C35.4227 92.7333 36.5294 94.0267 37.3294 95.68C38.156 97.3067 38.5694 99.2 38.5694 101.36C38.5694 103.493 38.156 105.387 37.3294 107.04C36.5294 108.693 35.4094 110 33.9694 110.96C32.556 111.893 30.9294 112.36 29.0894 112.36C27.8894 112.36 26.7427 112.133 25.6494 111.68C24.556 111.227 23.636 110.613 22.8894 109.84C22.1427 109.067 21.6494 108.227 21.4094 107.32L22.8894 106.76V120.8H16.4494ZM27.5294 106.96C28.4894 106.96 29.3294 106.733 30.0494 106.28C30.7694 105.8 31.3294 105.147 31.7294 104.32C32.1294 103.493 32.3294 102.507 32.3294 101.36C32.3294 100.24 32.1294 99.2667 31.7294 98.44C31.3294 97.5867 30.7694 96.9333 30.0494 96.48C29.356 96 28.516 95.76 27.5294 95.76C26.5427 95.76 25.6894 95.9867 24.9694 96.44C24.2494 96.8933 23.6894 97.5467 23.2894 98.4C22.8894 99.2533 22.6894 100.24 22.6894 101.36C22.6894 102.507 22.8894 103.493 23.2894 104.32C23.6894 105.147 24.2494 105.8 24.9694 106.28C25.6894 106.733 26.5427 106.96 27.5294 106.96ZM43.1766 112V90.76H49.5766V112H43.1766ZM46.3766 86.56C45.1766 86.56 44.2299 86.28 43.5366 85.72C42.8699 85.1333 42.5366 84.3067 42.5366 83.24C42.5366 82.28 42.8832 81.4933 43.5766 80.88C44.2699 80.2667 45.2032 79.96 46.3766 79.96C47.5766 79.96 48.5099 80.2533 49.1766 80.84C49.8432 81.4 50.1766 82.2 50.1766 83.24C50.1766 84.2267 49.8299 85.0267 49.1366 85.64C48.4699 86.2533 47.5499 86.56 46.3766 86.56ZM64.91 112.4C62.8567 112.4 61.0167 111.92 59.39 110.96C57.7633 110 56.47 108.693 55.51 107.04C54.5767 105.36 54.11 103.467 54.11 101.36C54.11 99.2533 54.5767 97.3733 55.51 95.72C56.47 94.04 57.7633 92.72 59.39 91.76C61.0167 90.8 62.8567 90.32 64.91 90.32C66.8033 90.32 68.5367 90.6533 70.11 91.32C71.71 91.9867 72.9767 92.92 73.91 94.12L70.43 98.28C70.0567 97.8533 69.6167 97.4533 69.11 97.08C68.6033 96.7067 68.0433 96.4133 67.43 96.2C66.8167 95.9867 66.1767 95.88 65.51 95.88C64.4967 95.88 63.6033 96.12 62.83 96.6C62.0567 97.0533 61.4567 97.6933 61.03 98.52C60.6033 99.3467 60.39 100.293 60.39 101.36C60.39 102.373 60.6033 103.293 61.03 104.12C61.4833 104.947 62.0967 105.6 62.87 106.08C63.6433 106.56 64.5233 106.8 65.51 106.8C66.2033 106.8 66.8433 106.72 67.43 106.56C68.0167 106.373 68.55 106.107 69.03 105.76C69.5367 105.413 70.0033 104.987 70.43 104.48L73.87 108.68C72.9633 109.827 71.6967 110.733 70.07 111.4C68.47 112.067 66.75 112.4 64.91 112.4ZM79.1469 112V85.4H85.5469V112H79.1469ZM75.3869 96.36V90.76H89.6669V96.36H75.3869ZM103.129 112.4C100.916 112.4 98.9424 111.92 97.2091 110.96C95.5024 110 94.1424 108.693 93.1291 107.04C92.1424 105.387 91.6491 103.493 91.6491 101.36C91.6491 99.2267 92.1424 97.3333 93.1291 95.68C94.1424 94.0267 95.5024 92.72 97.2091 91.76C98.9424 90.8 100.916 90.32 103.129 90.32C105.342 90.32 107.302 90.8 109.009 91.76C110.742 92.72 112.102 94.0267 113.089 95.68C114.076 97.3333 114.569 99.2267 114.569 101.36C114.569 103.493 114.076 105.387 113.089 107.04C112.102 108.693 110.742 110 109.009 110.96C107.302 111.92 105.342 112.4 103.129 112.4ZM103.129 106.88C104.089 106.88 104.942 106.64 105.689 106.16C106.436 105.68 107.022 105.027 107.449 104.2C107.876 103.373 108.076 102.427 108.049 101.36C108.076 100.293 107.876 99.3467 107.449 98.52C107.022 97.6667 106.436 97 105.689 96.52C104.942 96.04 104.089 95.8 103.129 95.8C102.169 95.8 101.302 96.04 100.529 96.52C99.7824 97 99.1957 97.6667 98.7691 98.52C98.3424 99.3467 98.1424 100.293 98.1691 101.36C98.1424 102.427 98.3424 103.373 98.7691 104.2C99.1957 105.027 99.7824 105.68 100.529 106.16C101.302 106.64 102.169 106.88 103.129 106.88Z" fill="#F3F4F6"/>
<path d="M121.314 101.88C120.114 101.88 119.181 101.547 118.514 100.88C117.874 100.213 117.554 99.2667 117.554 98.04C117.554 96.92 117.901 96 118.594 95.28C119.287 94.56 120.194 94.2 121.314 94.2C122.487 94.2 123.407 94.5333 124.074 95.2C124.741 95.8667 125.074 96.8133 125.074 98.04C125.074 99.16 124.727 100.08 124.034 100.8C123.341 101.52 122.434 101.88 121.314 101.88ZM130.415 112V90.2C130.415 88.7333 130.735 87.4 131.375 86.2C132.015 85 132.909 84.04 134.055 83.32C135.202 82.6 136.535 82.24 138.055 82.24C139.122 82.24 140.095 82.3867 140.975 82.68C141.882 82.9733 142.722 83.3867 143.495 83.92L141.495 89.24C141.149 89.1333 140.829 89.0533 140.535 89C140.242 88.92 139.989 88.88 139.775 88.88C139.322 88.88 138.949 88.96 138.655 89.12C138.389 89.28 138.189 89.52 138.055 89.84C137.949 90.16 137.895 90.5467 137.895 91V112H134.175C133.269 112 132.495 112 131.855 112C131.242 112 130.762 112 130.415 112ZM127.415 97.32V91.36H141.975V97.32H127.415ZM145.255 112V82.4H152.695V112H145.255ZM168.213 112.4C165.946 112.4 163.919 111.92 162.133 110.96C160.346 110 158.946 108.693 157.933 107.04C156.919 105.387 156.413 103.48 156.413 101.32C156.413 99.16 156.919 97.2533 157.933 95.6C158.946 93.9467 160.346 92.64 162.133 91.68C163.919 90.72 165.946 90.24 168.213 90.24C170.479 90.24 172.493 90.72 174.253 91.68C176.039 92.64 177.439 93.9467 178.453 95.6C179.466 97.2533 179.973 99.16 179.973 101.32C179.973 103.48 179.466 105.387 178.453 107.04C177.439 108.693 176.039 110 174.253 110.96C172.493 111.92 170.479 112.4 168.213 112.4ZM168.213 106.12C169.013 106.12 169.733 105.92 170.373 105.52C171.039 105.093 171.546 104.52 171.893 103.8C172.266 103.053 172.453 102.227 172.453 101.32C172.453 100.36 172.266 99.52 171.893 98.8C171.546 98.08 171.039 97.52 170.373 97.12C169.733 96.6933 169.013 96.48 168.213 96.48C167.386 96.48 166.653 96.6933 166.013 97.12C165.373 97.52 164.866 98.0933 164.493 98.84C164.119 99.56 163.933 100.387 163.933 101.32C163.933 102.227 164.119 103.053 164.493 103.8C164.866 104.52 165.373 105.093 166.013 105.52C166.653 105.92 167.386 106.12 168.213 106.12ZM187.685 112L180.765 90.68H188.645L192.085 103.6L191.245 103.44L195.125 93.4H199.445L203.645 103.44L202.805 103.56L206.205 90.68H214.085L206.805 112H201.205L197.165 101.52H197.445L193.285 112H187.685Z" fill="#2871A8"/>
</svg>
